<?xml version="1.0" encoding="UTF-8" standalone="no"?>
<!-- Created with Inkscape (http://www.inkscape.org/) -->

<svg
   xmlns:dc="http://purl.org/dc/elements/1.1/"
   xmlns:cc="http://creativecommons.org/ns#"
   xmlns:rdf="http://www.w3.org/1999/02/22-rdf-syntax-ns#"
   xmlns:svg="http://www.w3.org/2000/svg"
   xmlns="http://www.w3.org/2000/svg"
   xmlns:xlink="http://www.w3.org/1999/xlink"
   xmlns:sodipodi="http://sodipodi.sourceforge.net/DTD/sodipodi-0.dtd"
   xmlns:inkscape="http://www.inkscape.org/namespaces/inkscape"
   width="24"
   height="24"
   viewBox="0 0 24 24"
   id="svg2"
   version="1.1"
   inkscape:version="0.91 r13725"
   sodipodi:docname="exportHtml.svg"
   inkscape:export-filename="/home/alex256/Рабочий стол/TaskDevelop/tester/images/glyphs/exportHtml.png"
   inkscape:export-xdpi="90"
   inkscape:export-ydpi="90"
   enable-background="new">
  <defs
     id="defs4">
    <linearGradient
       inkscape:collect="always"
       id="linearGradient4266">
      <stop
         style="stop-color:#00ffff;stop-opacity:1"
         offset="0"
         id="stop4268" />
      <stop
         style="stop-color:#2c25ab;stop-opacity:1"
         offset="1"
         id="stop4270" />
    </linearGradient>
    <clipPath
       id="presentation_clip_path"
       clipPathUnits="userSpaceOnUse">
      <rect
         x="0"
         y="0"
         width="21000"
         height="29700"
         id="rect4359" />
    </clipPath>
    <clipPath
       id="presentation_clip_path-3"
       clipPathUnits="userSpaceOnUse">
      <rect
         x="0"
         y="0"
         width="21000"
         height="29700"
         id="rect4581" />
    </clipPath>
    <clipPath
       id="presentation_clip_path-6"
       clipPathUnits="userSpaceOnUse">
      <rect
         x="0"
         y="0"
         width="21000"
         height="29700"
         id="rect4893" />
    </clipPath>
    <clipPath
       id="presentation_clip_path-0"
       clipPathUnits="userSpaceOnUse">
      <rect
         x="0"
         y="0"
         width="21000"
         height="29700"
         id="rect5205" />
    </clipPath>
    <radialGradient
       inkscape:collect="always"
       xlink:href="#linearGradient4266"
       id="radialGradient4274"
       cx="10.54994"
       cy="1043.8833"
       fx="10.54994"
       fy="1043.8833"
       r="11.114438"
       gradientTransform="matrix(-0.79206171,0.94486535,-1.9316616,-1.7402817,2038.7664,2840.3778)"
       gradientUnits="userSpaceOnUse" />
  </defs>
  <sodipodi:namedview
     id="base"
     pagecolor="#ffffff"
     bordercolor="#666666"
     borderopacity="1.0"
     inkscape:pageopacity="0.0"
     inkscape:pageshadow="2"
     inkscape:zoom="0.9899495"
     inkscape:cx="-121.13744"
     inkscape:cy="-67.153192"
     inkscape:document-units="mm"
     inkscape:current-layer="layer3"
     showgrid="false"
     units="px"
     inkscape:window-width="1301"
     inkscape:window-height="744"
     inkscape:window-x="65"
     inkscape:window-y="24"
     inkscape:window-maximized="1" />
  <metadata
     id="metadata7">
    <rdf:RDF>
      <cc:Work
         rdf:about="">
        <dc:format>image/svg+xml</dc:format>
        <dc:type
           rdf:resource="http://purl.org/dc/dcmitype/StillImage" />
        <dc:title></dc:title>
      </cc:Work>
    </rdf:RDF>
  </metadata>
  <g
     inkscape:label="Layer 1"
     inkscape:groupmode="layer"
     id="layer1"
     transform="translate(0,-1028.3622)"
     style="display:inline">
    <g
       inkscape:groupmode="layer"
       id="layer2"
       inkscape:label="Layer 2"
       style="display:inline"
       sodipodi:insensitive="true">
      <path
         style="opacity:1;fill:url(#radialGradient4274);fill-opacity:1;stroke:#000000;stroke-width:0.69999981;stroke-linecap:square;stroke-linejoin:miter;stroke-miterlimit:4;stroke-dasharray:none;stroke-opacity:1"
         d="m 2.3499999,1030.2125 19.3000001,0 0,20.2997 -2.412501,0 -2.4125,0 -2.4125,0 -2.4125,0 -2.4124994,0 -2.4124998,0 -2.4124999,0 -2.4125,-2.5037 0,-2.5713 0,-2.5036 0,-2.5036 0,-2.5713 0,-2.5036 0,-2.5713 z"
         id="rect4264"
         inkscape:connector-curvature="0"
         sodipodi:nodetypes="cccccccccccccccccc" />
      <rect
         style="opacity:1;fill:#ffffff;fill-opacity:1;stroke:#000000;stroke-width:0.69999981;stroke-linecap:square;stroke-linejoin:miter;stroke-miterlimit:4;stroke-dasharray:none;stroke-opacity:1"
         id="rect4277"
         width="13.300587"
         height="13.201147"
         x="5.462903"
         y="1030.2122" />
      <rect
         style="opacity:1;fill:#282f5b;fill-opacity:1;stroke:#000000;stroke-width:0.69999981;stroke-linecap:square;stroke-linejoin:miter;stroke-miterlimit:4;stroke-dasharray:none;stroke-opacity:1"
         id="rect4316"
         width="13.243988"
         height="5.3369632"
         x="5.5195017"
         y="1045.1125"
         ry="0" />
      <rect
         style="opacity:1;fill:#afb4d4;fill-opacity:1;stroke:#000000;stroke-width:0;stroke-linecap:square;stroke-linejoin:miter;stroke-miterlimit:4;stroke-dasharray:none;stroke-opacity:1"
         id="rect4320"
         width="9.5651016"
         height="5.368804"
         x="5.5760999"
         y="1045.0822" />
      <rect
         style="opacity:1;fill:#282f5b;fill-opacity:1;stroke:#000000;stroke-width:0;stroke-linecap:square;stroke-linejoin:miter;stroke-miterlimit:4;stroke-dasharray:none;stroke-opacity:1"
         id="rect4322"
         width="2.2073312"
         height="3.3746762"
         x="6.8778591"
         y="1046.1528" />
      <rect
         ry="0"
         y="1044.9786"
         x="5.5195017"
         height="5.4710279"
         width="13.243988"
         id="rect4342"
         style="opacity:1;fill:none;fill-opacity:1;stroke:#000000;stroke-width:0.69999981;stroke-linecap:square;stroke-linejoin:miter;stroke-miterlimit:4;stroke-dasharray:none;stroke-opacity:1" />
    </g>
    <g
       inkscape:groupmode="layer"
       id="layer3"
       inkscape:label="Layer 3"
       style="opacity:1">
      <g
         id="g4378"
         transform="translate(-0.04464286,-0.40178571)"
         style="">
        <ellipse
           ry="5.7198052"
           rx="5.7198048"
           cy="1037.2979"
           cx="12.150557"
           id="path4312"
           style="opacity:1;fill:#00baff;fill-opacity:1;stroke:#000000;stroke-width:0.69999999;stroke-linecap:square;stroke-linejoin:miter;stroke-miterlimit:4;stroke-dasharray:none;stroke-dashoffset:0;stroke-opacity:1" />
        <path
           inkscape:connector-curvature="0"
           id="path4346"
           d="m 13.176195,1031.5829 c -0.07974,0.1595 -0.03412,0.1064 -0.108214,0.1803 -0.02404,0.023 -0.05174,0.045 -0.07216,0.072 -0.02636,0.034 -0.02802,0.086 -0.07214,0.1086 -0.106157,0.053 0.04749,-0.083 -0.07214,0.035 -0.02122,0.022 -0.127583,0.1359 -0.144286,0.1443 -0.01074,0 -0.02607,-0.011 -0.03607,0 -0.04162,0.028 -0.06659,0.08 -0.108214,0.1086 -0.05256,0.034 -0.07513,0.022 -0.108214,0.072 -0.01491,0.022 -0.02115,0.051 -0.03607,0.072 -0.0094,0.013 -0.02846,0.021 -0.03607,0.037 -0.0054,0.011 0,0.023 0,0.035 0,0.036 0.01339,0.074 0,0.1086 -0.01263,0.033 -0.05464,0.044 -0.07214,0.072 -0.01957,0.032 -0.01907,0.074 -0.03607,0.1086 -0.0076,0.015 -0.02846,0.021 -0.03607,0.035 -0.0054,0.011 0.0029,0.023 0,0.037 -0.0092,0.037 -0.02686,0.071 -0.03607,0.1085 -0.0029,0.011 0.0067,0.026 0,0.037 -0.01886,0.029 -0.07214,0.037 -0.07214,0.072 0,0.089 0.101179,0.072 0.144287,0.072 0.01202,0 0.02466,0 0.03607,0 0.02551,-0.011 0.04606,-0.03 0.07214,-0.035 0.124942,-0.031 0.02167,0.046 0.144287,-0.037 0.01414,-0.011 0.01994,-0.03 0.03607,-0.036 0.02282,-0.011 0.04981,0.011 0.07214,0 0.01537,-0.011 0.119525,-0.071 0.144287,-0.1085 0.01491,-0.022 0.02116,-0.051 0.03607,-0.072 0.0094,-0.013 0.02846,-0.021 0.03607,-0.036 0.0054,-0.011 -0.01074,-0.042 0,-0.037 0.03042,0.015 0.04172,0.057 0.07214,0.072 0.02266,0.011 0.121616,-0.011 0.144287,0 0.01521,0.011 0.02086,0.029 0.03607,0.037 0.112612,0.056 0.106132,-0.011 0.144287,0.1086 0.01692,0.05 -0.01542,0.03 -0.03607,0.072 -0.0054,0.011 0.0054,0.024 0,0.036 -0.0076,0.015 -0.02846,0.021 -0.03607,0.035 -0.01481,0.03 0.02773,0.1 0.03607,0.1085 0.0084,0.011 0.02533,0 0.03607,0 0.03041,0.015 0.04172,0.057 0.07216,0.072 0.01074,0 0.02405,0 0.03607,0 0.01202,0 0.02406,0 0.03607,0 0.04809,0 0.09619,0 0.144288,0 0.02404,0 0.04933,-0.011 0.07214,0 0.261283,0.086 -0.05687,-0.011 0.108213,0.072 0.01074,0 0.02405,0 0.03607,0 0.02404,0.012 0.05063,0.019 0.07214,0.036 0.01545,0.011 0.122417,0.1333 0.144287,0.1444 0.01074,0 0.02467,0 0.03607,0 0.07692,0.024 0.08556,0.049 0.144288,0.1085 0.01202,0.011 0.01994,0.03 0.03607,0.035 0.01409,0 0.108214,-0.021 0.108214,0.036 0,0.017 -0.02846,0.021 -0.03607,0.035 -0.01,0.019 0.0093,0.1883 0,0.2165 -0.0054,0.015 -0.02404,0.023 -0.03607,0.036 -0.04128,0.042 -0.04271,0.051 -0.108214,0.072 -0.02282,0.011 -0.05063,-0.011 -0.07216,0 -0.01521,0.011 -0.02086,0.03 -0.03607,0.037 -0.02266,0.011 -0.121615,-0.011 -0.144288,0 -0.04328,0.022 -0.06492,0.086 -0.108213,0.1085 -0.01074,0 -0.02467,0 -0.03607,0 -0.02551,0.011 -0.04606,0.029 -0.07214,0.036 -0.03736,0.011 -0.102924,0 -0.144289,0 -0.08417,0 -0.168335,0 -0.252502,0 -0.07558,0 -0.110362,-0.011 -0.18036,0.036 -0.04962,0.034 -0.03711,0.056 -0.07216,0.1086 -0.0094,0.013 -0.02847,0.021 -0.03607,0.036 -0.0054,0.011 0,0.023 0,0.035 -0.01202,0.023 -0.02116,0.051 -0.03607,0.072 -0.01887,0.028 -0.05951,0.041 -0.07214,0.072 -0.01842,0.046 -0.01766,0.099 -0.03607,0.1444 -0.0063,0.015 -0.02405,0.023 -0.03607,0.037 -0.01202,0.023 -0.02758,0.047 -0.03607,0.072 -0.0071,0.022 0,0.1602 0,0.1803 0,0.012 0.0038,0.024 0,0.035 -0.08709,0.2613 0.0104,-0.057 -0.07214,0.1086 -0.0054,0.011 0,0.023 0,0.036 0,0.044 0.0079,0.1929 0,0.2165 -0.0084,0.025 -0.02955,0.046 -0.03607,0.072 -0.0082,0.034 0,0.1385 0,0.1803 0,0.023 0,0.048 0,0.072 0,0.012 0.0054,0.025 0,0.037 -0.0076,0.015 -0.02846,0.021 -0.03607,0.037 -0.0054,0.011 0,0.023 0,0.036 0,0.052 -0.01701,0.08 0.03607,0.1085 0.01074,0 0.02405,0 0.03607,0 0.02405,0 0.04809,0 0.07214,0 0.09619,0 0.192384,0 0.288575,0 0.04136,0 0.106923,-0.011 0.144288,0 0.02609,0.011 0.04809,0.023 0.07214,0.037 0.02406,0.012 0.04978,0.022 0.07216,0.037 0.01414,0.011 0.02193,0.026 0.03607,0.035 0.02237,0.015 0.04978,0.021 0.07216,0.035 0.01414,0.011 0.01994,0.03 0.03607,0.035 0.02052,0.011 0.146385,0 0.18036,0 0.02404,0 0.04809,0 0.07214,0 0.01202,0 0.02607,0.011 0.03607,0 0.02829,-0.018 0.05951,-0.041 0.07214,-0.072 0.01184,-0.029 0,-0.1351 0,-0.1805 0,-0.1201 0,-0.2404 0,-0.3606 0,-0.011 -0.0041,-0.1362 0,-0.1444 0.0076,-0.015 0.02405,-0.023 0.03607,-0.036 0.01202,-0.012 0.02405,-0.023 0.03607,-0.036 0.06711,-0.068 0.08934,-0.1 0.18036,-0.1444 0.01074,0 0.02467,0 0.03607,0 0.02551,-0.011 0.04719,-0.026 0.07214,-0.037 0.0353,-0.013 0.07779,-0.013 0.108213,-0.034 0.02151,-0.016 0.01707,-0.054 0.03607,-0.072 0.0084,-0.011 0.02405,0 0.03607,0 0.01425,0 0.164953,-0.011 0.180359,0 0.01521,0.011 0.02085,0.028 0.03607,0.037 0.04975,0.024 0.03226,-0.044 0.07216,0.035 0.0054,0.011 -0.0054,0.024 0,0.034 0.0076,0.015 0.02846,0.021 0.03607,0.037 0.0048,0.011 0,0.1254 0,0.1444 0,0.095 0,0.1923 0,0.2885 0,0.032 -0.0057,0.1688 0,0.1803 0.0074,0.015 0.09292,0.099 0.108214,0.1085 0.02237,0.015 0.04978,0.022 0.07214,0.035 0.07632,0.051 0.03353,0.1098 0.144288,0.037 0.01414,-0.011 0.02404,-0.023 0.03607,-0.037 0.01202,-0.011 0.03069,-0.019 0.03607,-0.035 0.0068,-0.021 0,-0.1463 0,-0.1803 0,-0.095 0,-0.1924 0,-0.2885 0,-0.012 0,-0.023 0,-0.036 0,-0.011 0.0054,-0.024 0,-0.035 -0.01939,-0.04 -0.05603,-0.068 -0.07214,-0.1085 -0.01786,-0.045 0.01166,-0.098 0,-0.1443 -0.0065,-0.026 -0.02757,-0.047 -0.03607,-0.072 -0.0013,0 -0.0053,-0.2007 0,-0.2164 0.0088,-0.026 0.03912,-0.091 0.07216,-0.1085 0.01074,0 0.02405,0 0.03607,0 0.03607,0 0.07214,0 0.108213,0 0.04809,0 0.09619,0 0.144289,0 0.02406,0 0.04933,-0.011 0.07214,0 0.02551,0.011 0.05314,0.017 0.07216,0.036 0.01901,0.019 0.02117,0.049 0.03607,0.072 0.0094,0.013 0.02664,0.022 0.03607,0.037 0.0149,0.022 0.01707,0.053 0.03607,0.072 0.0084,0.011 0.02441,0 0.03607,0 0.03688,0.011 0.07421,0.019 0.108214,0.035 0.01521,0.011 0.02086,0.029 0.03607,0.036 0.01074,0 0.02406,0 0.03607,0 0.08828,0 0.278373,-0.021 0.324648,0.072 0.0041,0.011 0,0.1356 0,0.1443 0,0.1203 0,0.2404 0,0.3607 0,0.015 -0.0055,0.098 0,0.1084 0.02653,0.054 0.0566,0.037 0.108214,0.037 0.01202,0 0.02466,0 0.03607,0 0.0255,-0.011 0.05314,-0.017 0.07214,-0.037 0.01901,-0.019 0.02116,-0.049 0.03607,-0.072 0.0094,-0.013 0.02404,-0.023 0.03607,-0.037 0.01202,-0.012 0.02086,-0.03 0.03607,-0.037 0.01074,0 0.02533,0 0.03607,0 0.02967,-0.015 0.117611,-0.1264 0.144288,-0.1443 0.01006,-0.011 0.02405,0 0.03607,0 0.05092,0 0.119209,0.022 0.144287,0.072 0.0054,0.011 0,0.023 0,0.036 0,0.023 0,0.048 0,0.072 0,0.061 0,0.1204 0,0.1805 0,0.032 0.0076,0.078 0,0.1085 -0.01685,0.068 -0.06795,0.1921 -0.108213,0.2524 -0.02074,0.031 -0.08004,0.08 -0.108214,0.1086 -0.03607,0.037 -0.06577,0.079 -0.108213,0.1085 -0.01006,0.011 -0.02405,0 -0.03607,0 -0.04809,0 -0.09763,-0.011 -0.144288,0 -0.0165,0 -0.02085,0.028 -0.03607,0.037 -0.01074,0 -0.02441,0 -0.03607,0 -0.03689,0.011 -0.07133,0.028 -0.108214,0.036 -0.01167,0 -0.02466,0 -0.03607,0 -0.216192,0.072 0.0906,-0.011 -0.144288,0.1086 -0.02149,0.011 -0.04933,-0.011 -0.07214,0 -0.01613,0 -0.01957,0.031 -0.03607,0.035 -0.02039,0 -0.152372,-0.011 -0.180359,0 -0.02551,0.011 -0.04663,0.027 -0.07214,0.037 -0.02481,0.011 -0.08694,-0.011 -0.108215,0 -0.01521,0.011 -0.01994,0.031 -0.03607,0.037 -0.04417,0.015 -0.09918,-0.011 -0.144287,0 -0.03689,0.011 -0.07421,0.019 -0.108213,0.036 -0.01521,0.011 -0.01958,0.032 -0.03607,0.037 -0.03499,0.011 -0.07214,0 -0.108214,0 -0.01202,0 -0.02467,0 -0.03607,0 -0.02551,0.011 -0.04606,0.029 -0.07214,0.035 -0.03219,0.011 -0.138604,0 -0.180358,0 -0.02015,0 -0.159073,-0.011 -0.18036,0 -0.02551,0.011 -0.04663,0.029 -0.07214,0.036 -0.02129,0.011 -0.160206,0 -0.18036,0 -0.144288,0 -0.288576,0 -0.432863,0 -0.192384,0 -0.384766,0 -0.57715,0 -0.08417,0 -0.168336,0 -0.252505,0 -0.01624,0 -0.09724,0 -0.108213,0 -0.01521,0.011 -0.02086,0.029 -0.03607,0.037 -0.01074,0 -0.02532,0 -0.03607,0 -0.01051,0 -0.141607,0.1361 -0.144288,0.1442 -0.01085,0.032 0.01086,0.075 0,0.1086 -0.02509,0.075 -0.08312,0.1051 -0.108214,0.1803 -0.01278,0.04 0.01278,0.1063 0,0.1443 -0.0054,0.016 -0.02846,0.021 -0.03607,0.036 -0.01074,0.022 0.0076,0.049 0,0.072 -0.0084,0.024 -0.02757,0.047 -0.03607,0.072 -0.01119,0.034 0.01108,0.1471 0,0.1805 -0.01074,0.033 -0.05693,0.042 -0.07214,0.072 -0.0051,0.011 -0.0051,0.1342 0,0.1444 0.01522,0.031 0.06139,0.041 0.07214,0.072 0.0076,0.022 -0.0058,0.049 0,0.072 0.0065,0.026 0.02757,0.047 0.03607,0.072 0.04769,0.143 -0.19954,-0.2122 0.03607,0.1804 0.01384,0.022 0.05723,0.013 0.07214,0.035 0.01334,0.019 -0.0076,0.049 0,0.072 0.0054,0.015 0.02847,0.021 0.03607,0.036 0.01074,0.022 -0.0076,0.049 0,0.072 0.0084,0.024 0.02758,0.047 0.03607,0.072 0.0038,0.011 -0.0038,0.024 0,0.035 0.08709,0.2614 -0.0104,-0.057 0.07214,0.1085 0.0054,0.011 -0.0054,0.024 0,0.036 0.0076,0.015 0.02405,0.023 0.03607,0.035 0.01202,0.023 0.02609,0.047 0.03607,0.072 0.01412,0.034 0.01907,0.074 0.03607,0.1084 0.01522,0.03 0.05328,0.044 0.07214,0.072 0.07947,0.018 0.01907,0.074 0.03607,0.1087 0.0074,0.015 0.09292,0.099 0.108213,0.1085 0.02238,0.015 0.04978,0.022 0.07214,0.037 0.02829,0.018 0.04172,0.057 0.07216,0.072 0.01074,0 0.02466,0 0.03607,0 0.02551,0.011 0.04663,0.028 0.07216,0.037 0.03833,0.012 0.105951,-0.012 0.144288,0 0.02551,0.011 0.04663,0.028 0.07214,0.036 0.02008,0.011 0.0943,-0.011 0.108214,0 0.02829,0.019 0.04809,0.048 0.07214,0.072 0.01202,0.012 0.02085,0.029 0.03607,0.037 0.02886,0.015 0.07936,-0.015 0.108214,0 0.01521,0.011 0.02086,0.028 0.03607,0.037 0.02554,0.1096 0.09994,0.013 0.144287,0.035 0.03197,0.016 0.07538,0.085 0.108214,0.1086 0.05257,0.034 0.07513,0.022 0.108214,0.072 0.01491,0.022 0.02117,0.05 0.03607,0.072 0.05981,0.089 0.0083,0 0.07214,0.034 0.01521,0.011 0.02404,0.023 0.03607,0.035 0.05459,0.055 0.114399,0.1052 0.144287,0.1804 0.0089,0.022 -0.0076,0.049 0,0.072 0.01074,0.033 0.09752,0.076 0.108214,0.1085 0.0026,0.011 -0.0067,0.1344 0,0.1441 0.01886,0.029 0.05327,0.044 0.07214,0.072 0.0051,0.011 -0.003,0.1291 0,0.1443 0.0074,0.038 0.02686,0.071 0.03607,0.1085 0.0058,0.022 -0.0076,0.049 0,0.072 0.08709,0.2613 -0.0104,-0.057 0.07216,0.1086 0.0054,0.011 -0.0067,0.026 0,0.037 0.01886,0.03 0.05327,0.043 0.07214,0.072 0.01334,0.019 -0.01074,0.051 0,0.072 0.0076,0.015 0.02848,0.021 0.03607,0.036 0.0054,0.011 -0.0038,0.024 0,0.037 0.0084,0.024 0.02405,0.048 0.03607,0.072 0.01202,0.023 0.01994,0.051 0.03607,0.072 0.0204,0.029 0.05328,0.043 0.07215,0.072 0.0067,0.011 -0.0054,0.024 0,0.035 0.0076,0.015 0.02847,0.021 0.03607,0.037 0.0054,0.011 -0.0054,0.024 0,0.036 0.0076,0.015 0.02847,0.021 0.03607,0.035 0.01701,0.034 0.01498,0.076 0.03607,0.1086 0.0067,0.011 0.02532,0 0.03607,0 0.01522,0.011 0.02086,0.03 0.03607,0.036 0.01074,0 0.02405,0 0.03607,0 0.01202,0 0.02406,0 0.03607,0 0.03607,0 0.07322,0.011 0.108215,0 0.0165,0 0.02085,-0.028 0.03607,-0.036 0.01074,0 0.02531,0 0.03607,0 0.01522,-0.011 0.02405,-0.023 0.03607,-0.037 0.04642,-0.047 0.08622,-0.079 0.108214,-0.1442 0.0038,-0.011 -0.0029,-0.023 0,-0.037 0.0092,-0.037 0.02861,-0.071 0.03607,-0.1085 0.0047,-0.023 -0.0076,-0.049 0,-0.072 0.0054,-0.016 0.02847,-0.021 0.03607,-0.037 0.01701,-0.034 0.01651,-0.075 0.03607,-0.1085 0.01749,-0.028 0.05693,-0.042 0.07214,-0.072 0.01074,-0.022 0,-0.048 0,-0.072 0,-0.061 0,-0.1203 0,-0.1803 0,-0.012 0,-0.023 0,-0.037 0,-0.012 -0.0054,-0.025 0,-0.037 0.0076,-0.015 0.03069,-0.019 0.03607,-0.036 0.0061,-0.018 0,-0.2231 0,-0.2527 0,-0.06 0,-0.1202 0,-0.1802 0,-0.023 -0.0047,-0.049 0,-0.072 0.0098,-0.049 0.02635,-0.096 0.03607,-0.1444 0.0023,-0.011 -0.0067,-0.026 0,-0.036 0.01886,-0.029 0.05328,-0.044 0.07214,-0.072 0.01051,-0.016 -0.0094,-0.089 0,-0.1086 0.0076,-0.015 0.02404,-0.023 0.03607,-0.036 0,-0.023 -0.0058,-0.049 0,-0.072 0.0065,-0.027 0.02117,-0.05 0.03607,-0.072 0.0094,-0.013 0.03195,-0.019 0.03607,-0.035 0.02169,-0.086 -0.03229,-0.1121 0.03607,-0.1803 0.0084,-0.011 0.02758,0.011 0.03607,0 0.03065,-0.031 0.04613,-0.073 0.07214,-0.1085 0.02999,-0.041 0.08053,-0.067 0.108213,-0.1087 0.01491,-0.022 0.02117,-0.051 0.03607,-0.072 0.0094,-0.013 0.02405,-0.023 0.03607,-0.036 0.01202,-0.012 0.02086,-0.03 0.03607,-0.036 0.01074,0 0.02533,0 0.03607,0 0.01522,-0.011 0.02086,-0.029 0.03607,-0.036 0.01605,-0.011 0.12779,0 0.144287,0 0.03211,-0.011 0.07612,-0.098 0.108213,-0.1085 0.02281,-0.011 0.04809,0 0.07214,0 0.01202,0 0.02532,0 0.03607,0 0.01521,-0.011 0.02086,-0.03 0.03607,-0.035 0.01074,0 0.02532,0 0.03607,0 0.01522,-0.011 0.02086,-0.029 0.03607,-0.036 0.02151,-0.011 0.05063,0.011 0.07214,0 0.04329,-0.022 0.06493,-0.087 0.108214,-0.1087 0.02151,-0.011 0.05063,0.011 0.07214,0 0.01457,-0.011 0.143206,-0.1431 0.144287,-0.1443 0.019,-0.019 0.09858,-0.089 0.108214,-0.1086 0.0015,0 0.0015,-0.1412 0,-0.1443 -0.0076,-0.015 -0.02086,-0.03 -0.03607,-0.036 -0.01074,0 -0.02405,0 -0.03607,0 -0.01202,0 -0.02405,0 -0.03607,0 -0.03607,0 -0.07214,0 -0.108213,0 -0.180359,0 -0.36072,0 -0.541078,0 -0.02406,0 -0.04933,0.011 -0.07216,0 -0.03225,-0.011 -0.04172,-0.057 -0.07214,-0.072 -0.01074,0 -0.02406,0 -0.03607,0 -0.01202,0 -0.02405,0 -0.03607,0 -0.06012,0 -0.120238,0 -0.180358,0 -0.03224,0 -0.168865,0.011 -0.180359,0 -0.01521,-0.011 -0.02848,-0.021 -0.03607,-0.036 -0.0054,-0.011 0,-0.023 0,-0.037 0,-0.078 -0.0097,-0.112 0.03607,-0.1803 0.0094,-0.013 0.03069,-0.019 0.03607,-0.036 0.0076,-0.022 -0.0076,-0.049 0,-0.072 0.0054,-0.016 0.02406,-0.023 0.03607,-0.037 0.03607,-0.036 0.07761,-0.067 0.108214,-0.1085 0.05627,-0.075 0.0091,-0.06 0.07216,-0.1086 0.03468,-0.026 0.07755,-0.042 0.108215,-0.072 0.0038,0 -0.0029,-0.1714 0,-0.1803 0.01074,-0.033 0.05693,-0.042 0.07214,-0.072 0.0054,-0.011 -0.0038,-0.024 0,-0.035 0.0084,-0.025 0.02758,-0.047 0.03607,-0.072 0.0071,-0.022 0,-0.1602 0,-0.1802 0,-0.021 0.0055,-0.1639 0,-0.1806 -0.0054,-0.016 -0.02847,-0.021 -0.03607,-0.035 -0.0054,-0.011 0,-0.023 0,-0.037 0,-0.011 -0.0038,-0.024 0,-0.035 0.01187,-0.035 0.07262,-0.1626 0.108213,-0.1804 0.02151,-0.011 0.04933,0.011 0.07214,0 0.0255,-0.011 0.04663,-0.028 0.07214,-0.035 0.10738,-0.036 -0.07401,0.086 0.108214,-0.037 0.01414,-0.011 0.02086,-0.028 0.03607,-0.035 0.01074,0 0.02533,0 0.03607,0 0.01522,-0.011 0.02406,-0.023 0.03607,-0.037 0.01202,-0.012 0.03069,-0.019 0.03607,-0.037 0.0076,-0.022 -0.0076,-0.049 0,-0.072 0.01074,-0.033 0.0639,-0.039 0.07214,-0.072 0.0088,-0.035 -0.01339,-0.074 0,-0.1086 0.01263,-0.032 0.04809,-0.048 0.07214,-0.072 0.01202,-0.011 0.02406,-0.023 0.03607,-0.034 0.02818,-0.029 0.07709,-0.088 0.108213,-0.1086 0.02238,-0.015 0.04978,-0.021 0.07214,-0.035 0.02829,-0.018 0.04172,-0.057 0.07214,-0.072 0.01097,0 0.09197,0 0.108214,0"
           style="fill:none;fill-rule:evenodd;stroke:#000000;stroke-width:0.30000001;stroke-linecap:butt;stroke-linejoin:miter;stroke-miterlimit:4;stroke-dasharray:none;stroke-opacity:1" />
        <path
           inkscape:connector-curvature="0"
           id="path4348"
           d="m 12.057966,1033.8916 c 0.03607,0.048 0.08454,0.089 0.108214,0.1442 0.0021,0 0,0.2444 0,0.2526 0,0.012 -0.0054,0.024 0,0.036 0.0076,0.015 0.02846,0.021 0.03607,0.037 0.0054,0.011 0,0.023 0,0.037 0,0.038 -0.0068,0.2249 0,0.2524 0.0065,0.026 0.02758,0.047 0.03607,0.072 0.0038,0.011 0,0.023 0,0.037 0,0.052 0.017,0.082 -0.03607,0.1085 -0.01074,0 -0.02533,0 -0.03607,0 -0.01522,0.011 -0.02087,0.029 -0.03607,0.035 -0.01074,0 -0.02406,0 -0.03607,0 -0.02405,0 -0.04809,0 -0.07214,0 -0.01624,0 -0.09725,0 -0.108214,0 -0.01521,0.011 -0.02086,0.03 -0.03607,0.036 -0.0019,0 -0.106328,0 -0.108213,0 -0.01521,-0.011 -0.02405,-0.023 -0.03607,-0.036 -0.01202,-0.012 -0.02405,-0.023 -0.03607,-0.035 -10e-4,0 -0.137002,-0.1296 -0.144287,-0.1443 -0.0026,0 -5.42e-4,-0.1787 0,-0.1804 0.02392,-0.072 0.03366,-0.017 0.07214,-0.035 0.01291,-0.011 0.179984,-0.1798 0.18036,-0.1803 0.0067,-0.011 -0.0054,-0.024 0,-0.036 0.0076,-0.015 0.02404,-0.023 0.03607,-0.037 0,-0.023 -0.0076,-0.049 0,-0.072 0.01074,-0.032 0.05694,-0.043 0.07214,-0.072 0.02405,-0.048 -0.04809,-0.048 0,-0.1086 0.03757,-0.047 0.09619,-0.072 0.144288,-0.1085 z"
           style="fill:none;fill-rule:evenodd;stroke:#000000;stroke-width:0.30000001;stroke-linecap:butt;stroke-linejoin:miter;stroke-miterlimit:4;stroke-dasharray:none;stroke-opacity:1" />
        <path
           inkscape:connector-curvature="0"
           id="path4354"
           d="m 6.5389653,1036.8133 c 0.035501,0.1185 0.1006247,0.1728 0.1803595,0.2525 0.012023,0.011 0.028466,0.021 0.036071,0.036 0.00538,0.011 -0.00667,0.026 0,0.035 0.018864,0.03 0.051739,0.045 0.072144,0.072 0.016132,0.021 0.021158,0.049 0.036071,0.072 0.00943,0.013 0.028466,0.021 0.036071,0.036 0.00538,0.011 0,0.023 0,0.036 0,0.023 -0.00761,0.049 0,0.072 0.00538,0.016 0.028466,0.021 0.036071,0.036 0.010753,0.022 -0.010753,0.051 0,0.072 0.019389,0.039 0.052757,0.069 0.072144,0.1085 0.00516,0.011 0,0.161 0,0.1803 0,0.1202 0,0.2406 0,0.3607 0,0.031 0.00647,0.125 0,0.1443 -0.044575,0.1338 -0.036071,-0.043 -0.036071,0.072 0,0.096 0,0.1923 0,0.2885 0,0.016 0.00549,0.098 0,0.1086 -0.00761,0.015 -0.028466,0.021 -0.036071,0.036 -0.014429,0.028 0.014429,0.079 0,0.1086 -0.0076,0.015 -0.030694,0.019 -0.036071,0.035 -0.00761,0.022 0,0.048 0,0.072 0,0.012 0.00538,0.024 0,0.037 -0.039878,0.08 -0.022388,0.011 -0.072144,0.036 -0.015209,0.011 -0.024048,0.023 -0.036072,0.036"
           style="fill:none;fill-rule:evenodd;stroke:#000000;stroke-width:0.30000001;stroke-linecap:butt;stroke-linejoin:miter;stroke-miterlimit:4;stroke-dasharray:none;stroke-opacity:1" />
        <path
           inkscape:connector-curvature="0"
           id="path4356"
           d="m 8.5589917,1032.8453 c 0.06012,0.023 0.1189313,0.052 0.1803596,0.072 0.025397,0.011 0.2176713,0 0.2525033,0 0.036071,0 0.072144,0 0.1082159,0 0.012024,0 0.024407,0 0.036071,0 0.036888,-0.011 0.071327,-0.029 0.1082159,-0.036 0.039324,-0.011 0.1936336,0.011 0.2164314,0 0.015209,-0.011 0.019576,-0.033 0.036073,-0.037 0.027973,-0.011 0.2437527,0 0.2885751,0 0.024054,0 0.049331,0.011 0.072138,0 0.016135,0 0.020866,-0.029 0.036075,-0.035 0.021506,-0.011 0.049331,0.011 0.072138,0 0.025505,-0.011 0.046063,-0.03 0.072138,-0.037 0.02333,-0.011 0.04809,0 0.07214,0 0.06012,0 0.12024,0 0.18036,0 0.03488,0 0.205733,0 0.216431,0 0.01522,0.011 0.02847,0.021 0.03607,0.037 9.66e-4,0 9.66e-4,0.1062 0,0.1085 -0.0076,0.015 -0.03069,0.019 -0.03607,0.036 -0.0076,0.022 0.01074,0.05 0,0.072 -0.01097,0.021 -0.160226,0.1601 -0.180358,0.1802 -0.08271,0.082 0.01521,-0.022 -0.07214,0.1086 -0.0094,0.013 -0.02664,0.021 -0.03607,0.037 -0.01491,0.022 -0.02116,0.049 -0.03607,0.072 -0.02075,0.03 -0.08005,0.079 -0.108213,0.1086 -0.02406,0.023 -0.0481,0.048 -0.07215,0.072 -0.024045,0.023 -0.042976,0.054 -0.072138,0.072 -0.2928866,0.1758 -0.015403,-0.011 -0.1442876,0.035 -0.261284,0.086 0.056872,-0.011 -0.1082137,0.072 -0.028853,0.015 -0.079361,-0.015 -0.1082136,0 -0.015209,0.011 -0.021928,0.026 -0.036075,0.037 -0.022373,0.015 -0.049774,0.022 -0.072144,0.036 -0.042445,0.03 -0.067405,0.078 -0.1082158,0.1086 -0.021509,0.016 -0.049773,0.022 -0.072144,0.036 -0.028297,0.019 -0.041726,0.057 -0.072144,0.072 -0.010753,0 -0.025318,0 -0.036071,0 -0.015209,0.011 -0.024048,0.023 -0.036071,0.036 -0.012023,0.011 -0.024048,0.023 -0.036071,0.037 -0.01899,0.019 -0.098583,0.089 -0.1082159,0.1085 -0.00537,0.011 0,0.2015 0,0.2165 0,0.1563 0,0.3126 0,0.4689 0,0.03 0.0061,0.2344 0,0.2526 -0.00538,0.016 -0.028466,0.021 -0.036072,0.036 -0.011477,0.022 0.010399,0.1492 0,0.1804 -0.025091,0.075 -0.083125,0.105 -0.1082159,0.1803 -0.00761,0.022 0.0076,0.049 0,0.072 -0.087095,0.2613 0.010399,-0.057 -0.072144,0.1086 -0.00538,0.011 0.00667,0.026 0,0.037 -0.027747,0.042 -0.080468,0.067 -0.108216,0.1085 -0.1459966,0.219 0.1038394,-0.1131 -0.072144,0.1804 -0.026247,0.044 -0.072144,0.072 -0.108216,0.1085 -0.01899,0.019 -0.08895,0.099 -0.1082159,0.1087 -0.010753,0 -0.025318,0 -0.036072,0 -0.015209,0.011 -0.020863,0.028 -0.036071,0.035 -0.038478,0.019 -0.048218,-0.034 -0.072144,0.037 -0.0076,0.022 0.00761,0.049 0,0.072 -0.00538,0.015 -0.024047,0.023 -0.036071,0.036 -0.012023,0.012 -0.024048,0.023 -0.036071,0.035 -0.024048,0.023 -0.05328,0.044 -0.072144,0.072 -0.014913,0.023 -0.019939,0.05 -0.036071,0.072 -0.020406,0.027 -0.056935,0.042 -0.072144,0.072 -0.010753,0.022 0.0076,0.049 0,0.072 -0.0015,0 -0.102027,0.1051 -0.1082159,0.1085 -0.010753,0 -0.025318,0 -0.036071,0 -0.015209,0.011 -0.020862,0.029 -0.036071,0.036 -0.019075,0.011 -0.1267136,0 -0.1442876,0 -0.065288,-0.022 -0.067088,0.059 -0.1082158,0.072 -0.022814,0.011 -0.049331,-0.011 -0.072144,0 -0.056192,0.018 -0.036071,0.105 -0.036071,0.1443 0,0.012 0.00538,0.024 0,0.035 -0.00761,0.015 -0.028466,0.021 -0.036072,0.036 -0.00538,0.011 0.00538,0.025 0,0.036 -0.00478,0.011 -0.098638,0.1041 -0.1082159,0.1085 -0.010753,0 -0.024047,0 -0.036071,0 -0.024047,0 -0.048096,0 -0.072143,0 -0.1202397,0 -0.2404793,0 -0.3607189,0 -0.024048,0 -0.048096,0 -0.072144,0 -0.012023,0 -0.036071,-0.011 -0.036071,0 0,0.017 0.028466,0.02 0.036071,0.036 0.021149,0.043 -0.021406,0.043 -0.036071,0.072 -0.010754,0.022 0.010753,0.05 0,0.072 -0.0076,0.015 -0.024047,0.048 -0.036071,0.036 -0.012023,-0.011 0.05128,-0.043 0.036071,-0.036 -0.038776,0.019 -0.06944,0.053 -0.1082159,0.072 -0.021559,0.011 -0.072144,-0.023 -0.072144,0.036 0,0.044 0.045051,-0.011 0.072144,-0.036"
           style="fill:none;fill-rule:evenodd;stroke:#000000;stroke-width:0.30000001;stroke-linecap:butt;stroke-linejoin:miter;stroke-miterlimit:4;stroke-dasharray:none;stroke-opacity:1" />
        <path
           inkscape:connector-curvature="0"
           id="path4358"
           d="m 6.5028934,1038.1119 c 0.1580386,-0.045 0.3083829,-0.036 0.4689348,-0.036 0.029489,0 0.2342209,-0.011 0.2525033,0 0.00804,0 0.1390071,0.1337 0.1442874,0.1441 0.017004,0.035 0.019068,0.074 0.036071,0.1086 0.082543,0.1651 -0.014951,-0.1528 0.072144,0.1085 0.00761,0.023 -0.010753,0.051 0,0.072 0.00761,0.015 0.02664,0.022 0.036071,0.034 0.014913,0.023 0.022239,0.049 0.036071,0.072 0.03087,0.052 0.087602,0.1186 0.108216,0.1804 0.00381,0.011 -0.00381,0.024 0,0.036 0.0085,0.024 0.027569,0.047 0.036071,0.072 0.030361,0.091 -0.073265,-0.038 0.036072,0.1086 0.00104,0 0.1367137,0.1418 0.1442875,0.1444 0.01716,0 0.1692045,-0.011 0.1803596,0 0.028297,0.018 0.043847,0.054 0.072144,0.072 0.010006,0.011 0.024665,0 0.036071,0 0.2612839,0.086 -0.056871,-0.011 0.1082159,0.072 0.010753,0 0.024047,0 0.036071,0 0.024047,0.012 0.049773,0.022 0.072144,0.037 0.033757,0.022 0.1211858,0.1211 0.1442876,0.1442 0.012023,0.011 0.024048,0.023 0.036071,0.036 0.012025,0.012 0.028466,0.021 0.036071,0.037 0.00538,0.011 0,0.023 0,0.037 0.012024,0.023 0.019939,0.05 0.036071,0.072 0.020406,0.028 0.05328,0.044 0.072144,0.072 0.00667,0.011 -0.00381,0.024 0,0.034 0.0085,0.025 0.029551,0.046 0.036071,0.072 0.00583,0.022 -0.00761,0.049 0,0.072 0.010753,0.032 0.056935,0.042 0.072144,0.072 0.00538,0.011 0,0.023 0,0.037 0.024047,0.023 0.05328,0.044 0.072143,0.072 0.00359,0 0,0.096 0,0.1086 0,0.1086 0,0.2164 0,0.3246 0,0.048 -0.011664,0.099 0,0.1443 0.00412,0.016 0.028466,0.021 0.036071,0.037 0.011336,0.022 -0.011336,0.1215 0,0.1441 0.00761,0.015 0.028466,0.021 0.036071,0.037 0.00538,0.011 -0.00538,0.024 0,0.037 0.0076,0.015 0.028466,0.021 0.036071,0.035 0.00538,0.011 -0.00538,0.025 0,0.037 0.015209,0.031 0.056935,0.042 0.072144,0.072 0.00538,0.011 -0.00292,0.023 0,0.037 -0.00828,0.072 0.056439,0.1176 0.072144,0.1804 0.00583,0.022 0,0.048 0,0.072 0.012024,0.023 0.027569,0.047 0.036071,0.072 0.011404,0.034 -0.00875,0.073 0,0.1086 0.014559,0.058 0.035476,0.072 0.072144,0.1086 0.012023,0.011 0.028466,0.021 0.036071,0.035 0.00538,0.011 0,0.023 0,0.037 0.012024,0.012 0.028466,0.021 0.036071,0.037 0.010753,0.022 -0.0076,0.049 0,0.072 0.012024,0.023 0.024048,0.048 0.036072,0.072 0,0.011 -0.00381,0.025 0,0.037 0.021838,0.065 0.030873,0.067 0.072144,0.1085 0.012023,0.012 0.028466,0.021 0.036071,0.037 0.010753,0.022 -0.010754,0.051 0,0.072 0.00761,0.015 0.030694,0.019 0.036073,0.036 0.00766,0.022 -0.00766,0.049 0,0.072 0.00537,0.016 0.028465,0.021 0.036075,0.036 0.053079,0.1063 -0.083563,-0.048 0.036075,0.072"
           style="fill:none;fill-rule:evenodd;stroke:#000000;stroke-width:0.30000001;stroke-linecap:butt;stroke-linejoin:miter;stroke-miterlimit:4;stroke-dasharray:none;stroke-opacity:1" />
        <path
           inkscape:connector-curvature="0"
           id="path4370"
           d="m 6.4978591,1037.1065 c 0.062606,-1.5646 0.6745745,-2.895 1.8330294,-3.9853 l 0.200412,-0.1885 0.2317908,0.02 c 0.1326339,0.011 0.4478259,-0.01 0.7367973,-0.042 0.6545384,-0.08 0.9979644,-0.086 1.0205524,-0.02 0.01028,0.03 8.63e-4,0.041 -0.02389,0.024 -0.0239,-0.015 -0.04075,0 -0.04075,0.034 0,0.033 -0.05275,0.1126 -0.117234,0.1783 -0.06449,0.066 -0.192211,0.2068 -0.28385,0.3132 -0.1307224,0.1519 -0.20455,0.2045 -0.3426839,0.2439 -0.1749417,0.05 -0.6751053,0.3955 -0.7334046,0.5066 -0.01624,0.031 -0.03613,0.308 -0.044199,0.6155 -0.011245,0.4285 -0.028465,0.5844 -0.073736,0.6673 -0.032486,0.06 -0.080415,0.161 -0.1065098,0.2254 -0.026095,0.065 -0.060291,0.1172 -0.075993,0.1172 -0.015702,0 -0.058332,0.069 -0.094736,0.1534 -0.074501,0.1725 -0.1559873,0.257 -0.3010518,0.3122 -0.056218,0.021 -0.099402,0.066 -0.099755,0.1018 -3.427e-4,0.035 -0.039007,0.1005 -0.085922,0.1448 -0.046914,0.045 -0.1114864,0.136 -0.1434945,0.2035 -0.060121,0.1267 -0.1164154,0.1647 -0.2508636,0.1692 -0.1424874,0.01 -0.2910294,0.1203 -0.3168338,0.2466 -0.013295,0.065 -0.03818,0.1322 -0.055301,0.1492 -0.017121,0.017 -0.1690125,0.036 -0.3375374,0.042 -0.2963724,0.01 -0.3067877,0.013 -0.3179785,0.1006 -0.011324,0.088 -0.094496,0.1803 -0.1629464,0.1803 -0.02127,0 -0.026595,-0.1969 -0.013905,-0.514 z"
           style="opacity:1;fill:#008000;fill-opacity:1;stroke:#000000;stroke-width:0.30000001;stroke-linecap:square;stroke-linejoin:miter;stroke-miterlimit:4;stroke-dasharray:none;stroke-dashoffset:0;stroke-opacity:1" />
        <path
           inkscape:connector-curvature="0"
           id="path4372"
           d="m 9.2108712,1042.1385 c -1.1077711,-0.6677 -1.9771266,-1.746 -2.4098414,-2.9893 -0.1372262,-0.3942 -0.2583935,-0.9303 -0.2231501,-0.9874 0.012371,-0.02 0.1661127,-0.036 0.3419132,-0.036 l 0.3194343,0 0.093264,0.1669 c 0.051295,0.091 0.093264,0.1814 0.093264,0.1991 0,0.017 0.040228,0.093 0.089395,0.1674 0.049169,0.074 0.100064,0.1884 0.1131033,0.2537 0.024317,0.1216 0.205902,0.2951 0.308817,0.2951 0.078701,0 0.3831937,0.1609 0.4844233,0.256 0.097295,0.091 0.2667771,0.3647 0.2667771,0.4302 0,0.023 0.033809,0.089 0.075132,0.1476 0.0619,0.086 0.076601,0.1673 0.083476,0.4564 0.00747,0.3144 0.020151,0.3737 0.1215789,0.5686 0.062279,0.1198 0.1245577,0.2901 0.1383965,0.3787 0.01384,0.088 0.055177,0.1999 0.091865,0.2472 0.036687,0.048 0.066703,0.1026 0.066703,0.1229 0,0.02 0.041772,0.125 0.092828,0.2329 0.051056,0.1079 0.087379,0.2017 0.080719,0.2084 -0.00666,0.01 -0.1093037,-0.047 -0.2280973,-0.1182 z"
           style="opacity:1;fill:#008000;fill-opacity:1;stroke:#000000;stroke-width:0.30000001;stroke-linecap:square;stroke-linejoin:miter;stroke-miterlimit:4;stroke-dasharray:none;stroke-dashoffset:0;stroke-opacity:1" />
        <path
           inkscape:connector-curvature="0"
           id="path4374"
           d="m 15.37059,1041.7449 c -0.0248,-0.01 -0.04509,-0.04 -0.04509,-0.064 0,-0.025 -0.04284,-0.1092 -0.09519,-0.1863 -0.05235,-0.077 -0.111653,-0.1891 -0.131769,-0.2486 -0.02012,-0.06 -0.06726,-0.1523 -0.104762,-0.2061 -0.03749,-0.054 -0.07792,-0.1803 -0.08981,-0.2807 -0.01188,-0.1006 -0.03556,-0.1913 -0.05257,-0.2018 -0.01701,-0.01 -0.03092,-0.057 -0.03092,-0.1028 0,-0.047 -0.02435,-0.1038 -0.05411,-0.1285 -0.02975,-0.024 -0.0541,-0.07 -0.0541,-0.1016 0,-0.075 -0.501984,-0.5481 -0.581967,-0.5481 -0.03469,0 -0.0731,-0.016 -0.08536,-0.036 -0.01227,-0.02 -0.05181,-0.037 -0.08789,-0.037 -0.03607,0 -0.08497,-0.023 -0.108614,-0.052 -0.02366,-0.028 -0.131333,-0.063 -0.239278,-0.076 -0.206311,-0.026 -0.484052,-0.1878 -0.484052,-0.2824 0,-0.027 -0.02311,-0.068 -0.05137,-0.092 -0.06698,-0.055 -0.257845,-0.4555 -0.290596,-0.6089 -0.01406,-0.066 -0.04645,-0.1277 -0.072,-0.1375 -0.02555,-0.01 -0.05679,-0.082 -0.06941,-0.1614 -0.01264,-0.079 -0.0428,-0.1755 -0.06704,-0.2142 -0.03478,-0.056 -0.03463,-0.086 6.51e-4,-0.1422 0.02461,-0.04 0.04475,-0.1042 0.04475,-0.1439 0,-0.1104 0.07511,-0.4044 0.13068,-0.5116 0.02732,-0.053 0.04969,-0.1195 0.04969,-0.1489 0,-0.133 0.09938,-0.1516 0.934263,-0.1749 1.095864,-0.031 1.40181,-0.052 1.459555,-0.1 0.02676,-0.022 0.09564,-0.048 0.153066,-0.055 0.05743,-0.01 0.144981,-0.024 0.194579,-0.038 0.04959,-0.012 0.177105,-0.038 0.283345,-0.055 0.106237,-0.018 0.217694,-0.054 0.247676,-0.078 0.06933,-0.058 0.294095,-0.1364 0.390755,-0.1371 0.09535,0 0.285145,-0.197 0.35695,-0.3692 0.06777,-0.1624 0.07473,-0.5455 0.01086,-0.5965 -0.12088,-0.097 -0.190643,-0.081 -0.367902,0.081 -0.251774,0.2311 -0.272375,0.2205 -0.272375,-0.1401 0,-0.1979 -0.01556,-0.315 -0.04508,-0.3393 -0.0248,-0.021 -0.142485,-0.055 -0.261521,-0.077 -0.174244,-0.032 -0.238924,-0.064 -0.331825,-0.1658 -0.104489,-0.1139 -0.133802,-0.1258 -0.31004,-0.1258 -0.279892,0 -0.331957,0.067 -0.299505,0.3833 0.01354,0.1323 0.04015,0.2694 0.05915,0.3049 0.04588,0.086 0.04442,0.5639 -0.0018,0.5924 -0.01997,0.012 -0.0849,-0.012 -0.144287,-0.054 -0.106181,-0.075 -0.107975,-0.082 -0.107975,-0.4007 0,-0.2957 -0.0076,-0.3316 -0.08853,-0.4123 -0.10939,-0.1094 -0.279668,-0.1163 -0.406623,-0.016 -0.05045,0.04 -0.113824,0.072 -0.140855,0.072 -0.02703,0 -0.114111,0.059 -0.193532,0.1306 l -0.144391,0.1304 0,0.3518 0,0.3518 -0.1281,0.021 c -0.102124,0.016 -0.162083,0 -0.295637,-0.086 -0.14554,-0.092 -0.201682,-0.1062 -0.427581,-0.1062 l -0.260045,0 0.01688,-0.1534 c 0.0092,-0.084 0.03389,-0.2588 0.05467,-0.3877 0.02078,-0.1289 0.04613,-0.2987 0.05633,-0.3772 0.01601,-0.1233 0.20535,-0.5319 0.304152,-0.6563 0.01891,-0.023 0.169349,-0.047 0.352424,-0.054 0.229239,-0.01 0.338306,-0.028 0.386288,-0.071 0.03677,-0.032 0.126575,-0.069 0.199557,-0.082 0.191194,-0.034 0.270988,-0.1199 0.295335,-0.3168 0.01844,-0.1494 0.0121,-0.1721 -0.05397,-0.193 -0.07638,-0.024 -0.178787,-0.091 -0.460629,-0.297 -0.125045,-0.091 -0.194302,-0.1164 -0.326451,-0.1164 -0.212689,0 -0.259254,-0.042 -0.204964,-0.1865 0.03642,-0.096 0.03155,-0.1159 -0.04488,-0.1778 -0.04715,-0.038 -0.128309,-0.078 -0.18036,-0.089 -0.05205,-0.01 -0.120259,-0.034 -0.151578,-0.05 -0.04163,-0.022 -0.08135,4e-4 -0.14771,0.083 -0.08561,0.1073 -0.415154,0.2633 -0.494583,0.2343 -0.04079,-0.015 0.0545,-0.3134 0.125793,-0.3939 0.02772,-0.032 0.0504,-0.089 0.0504,-0.1285 0,-0.095 0.05043,-0.1543 0.306611,-0.3584 0.119038,-0.094 0.266563,-0.2294 0.327835,-0.2992 l 0.111401,-0.127 0.213245,0.048 c 1.886414,0.4172 3.495207,1.8631 4.109294,3.6935 l 0.122607,0.3654 -0.196715,0.1752 c -0.108191,0.096 -0.196716,0.1953 -0.196716,0.2195 0,0.159 -0.11973,0.2709 -0.406997,0.3801 -0.132394,0.051 -0.166841,0.1572 -0.14368,0.4458 0.01523,0.1896 0.0063,0.2602 -0.04239,0.3345 -0.03394,0.052 -0.05279,0.1174 -0.0419,0.1458 0.01165,0.03 -0.04772,0.1219 -0.144518,0.2225 -0.235669,0.2453 -0.330826,0.5071 -0.223301,0.6146 0.0242,0.024 0.14028,0.044 0.263325,0.044 0.121022,0 0.237325,0.017 0.25845,0.039 0.02402,0.023 0.188958,0.034 0.440151,0.027 0.264676,-0.01 0.401714,0 0.401666,0.026 -1.1e-4,0.048 -0.217235,0.2605 -0.330798,0.3248 -0.146722,0.083 -0.325802,0.1603 -0.372666,0.1603 -0.02491,0 -0.06549,0.024 -0.09019,0.054 -0.0247,0.029 -0.08423,0.054 -0.132309,0.054 -0.04808,0 -0.123188,0.038 -0.166924,0.084 -0.259531,0.2737 -0.350192,0.3839 -0.35124,0.4269 -0.0015,0.06 -0.115514,0.3913 -0.157846,0.4585 -0.01712,0.027 -0.04548,0.2709 -0.06301,0.5412 -0.02389,0.3684 -0.04901,0.5232 -0.100235,0.6177 -0.03759,0.069 -0.07971,0.1875 -0.09361,0.2622 -0.03695,0.1989 -0.210385,0.3189 -0.368681,0.255 z"
           style="opacity:1;fill:#008000;fill-opacity:1;stroke:#000000;stroke-width:0.30000001;stroke-linecap:square;stroke-linejoin:miter;stroke-miterlimit:4;stroke-dasharray:none;stroke-dashoffset:0;stroke-opacity:1" />
        <path
           inkscape:connector-curvature="0"
           id="path4376"
           d="m 11.671956,1034.7789 c -0.09387,-0.099 -0.141478,-0.2918 -0.05919,-0.2409 0.08173,0.051 0.276466,-0.2107 0.37105,-0.4976 0.01144,-0.034 0.03698,-0.063 0.05674,-0.063 0.06748,0 0.10289,0.1262 0.104056,0.3706 6.5e-4,0.1344 0.01179,0.2927 0.02478,0.3518 0.02641,0.1202 0.01778,0.1261 -0.235913,0.1598 -0.146767,0.019 -0.173658,0.011 -0.26152,-0.08 z"
           style="opacity:1;fill:#008000;fill-opacity:1;stroke:#000000;stroke-width:0.30000001;stroke-linecap:square;stroke-linejoin:miter;stroke-miterlimit:4;stroke-dasharray:none;stroke-dashoffset:0;stroke-opacity:1" />
      </g>
    </g>
  </g>
</svg>
